<svg id="Capa_1" enable-background="new 0 0 512 512" height="512" viewBox="0 0 512 512" width="512" xmlns="http://www.w3.org/2000/svg"><path d="m305.504 270 45 242c23.725 0 43.45-18.539 44.908-42.204l9.415-154.796z" fill="#ff4154"/><path d="m188.452 225v-129.572h-115l7.5 169.572z" fill="#ad3950"/><path d="m120.952 95.428h-67.5v129.572l67.5 40z" fill="#ff4154"/><path d="m120.952 225-67.5 75h135v-75z" fill="#3e2f4d"/><path d="m53.452 225h67.5v75h-67.5z" fill="#5b324c"/><path d="m168.681 47.698-47.729-47.698s-40 95.428-40 95.428l40 67.5c18.029 0 34.981-7.021 47.73-19.771 26.317-26.317 26.317-69.14-.001-95.459z" fill="#ff4154"/><path d="m73.222 47.698c-12.749 12.749-19.771 29.7-19.771 47.729 0 18.03 7.021 34.981 19.771 47.729 12.748 12.749 29.699 19.771 47.729 19.771v-162.927z" fill="#ff6358"/><path d="m218.452 270h-97.5l-80 121 80 121h97.5z" fill="#091c40"/><path d="m23.452 270h97.5v242h-97.5z" fill="#3e2f4d"/><path d="m296.182 315 9.415 154.792c1.456 23.668 21.182 42.208 44.907 42.208v-242z" fill="#ff6358"/><path d="m320.504 145 30 170h54.323l5.473-90z" fill="#899bbc"/><path d="m290.708 225 5.474 90h54.322v-170z" fill="#a8bbde"/><path d="m488.548 61.536-7.438-7.437c-36.007-36.008-83.306-54.013-130.606-54.013l-45 112.457 45 112.457h59.796z" fill="#091c40"/><path d="m219.898 54.1-7.438 7.437 78.248 163.463h59.796v-224.914c-47.299 0-94.598 18.005-130.606 54.014z" fill="#3e2f4d"/></svg>