<?xml version="1.0" standalone="no"?><!DOCTYPE svg PUBLIC "-//W3C//DTD SVG 1.1//EN" "http://www.w3.org/Graphics/SVG/1.1/DTD/svg11.dtd"><svg t="1650883229202" class="icon" viewBox="0 0 1024 1024" version="1.1" xmlns="http://www.w3.org/2000/svg" p-id="776" xmlns:xlink="http://www.w3.org/1999/xlink" width="200" height="200"><defs><style type="text/css">@font-face { font-family: feedback-iconfont; src: url("//at.alicdn.com/t/font_1031158_u69w8yhxdu.woff2?t=1630033759944") format("woff2"), url("//at.alicdn.com/t/font_1031158_u69w8yhxdu.woff?t=1630033759944") format("woff"), url("//at.alicdn.com/t/font_1031158_u69w8yhxdu.ttf?t=1630033759944") format("truetype"); }
</style></defs><path d="M491.63197529 247.21567882a20.36802471 20.36802471 0 0 1 40.73604942 0v122.20814824a20.36802471 20.36802471 0 0 1-40.73604942 0V247.21567882z m159.52236951 38.59740681a20.36802471 20.36802471 0 1 1 32.95546397 23.95279706l-71.81765511 98.86639193a20.36802471 20.36802471 0 0 1-32.97583201-23.95279705l71.83802315-98.86639194z m106.38219305 124.99856763a20.36802471 20.36802471 0 1 1 12.58743926 38.73998299l-116.24031701 37.76231781a20.36802471 20.36802471 0 0 1-12.58743927-38.739983l116.24031702-37.7623178z m12.58743926 163.63671049a20.36802471 20.36802471 0 1 1-12.58743926 38.73998299l-116.24031702-37.76231781a20.36802471 20.36802471 0 0 1 12.58743928-38.73998299l116.240317 37.76231781zM684.10980877 714.25448534a20.36802471 20.36802471 0 0 1-32.95546397 23.95279706l-71.83802315-98.86639194a20.36802471 20.36802471 0 1 1 32.97583201-23.95279705l71.81765512 98.86639193zM532.36802471 776.78432118a20.36802471 20.36802471 0 0 1-40.73604942 0v-122.20814824a20.36802471 20.36802471 0 0 1 40.73604942 0v122.20814824z m-159.52236951-38.59740681a20.36802471 20.36802471 0 0 1-32.95546397-23.95279706l71.81765511-98.86639193a20.36802471 20.36802471 0 0 1 32.97583201 23.95279705l-71.83802315 98.86639194z m-106.38219305-124.99856763a20.36802471 20.36802471 0 1 1-12.58743926-38.73998299l116.24031701-37.76231781a20.36802471 20.36802471 0 0 1 12.58743927 38.739983l-116.24031702 37.7623178z m-12.58743926-163.63671049a20.36802471 20.36802471 0 0 1 12.58743926-38.73998299l116.24031702 37.76231781a20.36802471 20.36802471 0 1 1-12.58743928 38.73998299l-116.240317-37.76231781zM339.89019123 309.74551466a20.36802471 20.36802471 0 1 1 32.95546397-23.95279706l71.83802315 98.86639194a20.36802471 20.36802471 0 1 1-32.97583201 23.95279705L339.89019123 309.74551466z" fill="#dfdfdf" p-id="777"></path></svg>