<svg id="Capa_1" enable-background="new 0 0 512 512" height="512" viewBox="0 0 512 512" width="512" xmlns="http://www.w3.org/2000/svg"><g><path d="m256 0v63.734c70.813 0 132.676 38.285 166.035 95.284 14.063 24.029-7.326 53.358-34.477 47.194-4.885-1.109-10.062-2.205-15.526-3.266h-126.032l10 309.054c141.385 0 256-114.615 256-256s-114.615-256-256-256zm176.428 332.501c-19.395 44.671-55.257 80.534-99.926 99.93-21.075 9.151-44.635-6.23-44.635-29.207v-39.207l76.149-76.15h39.204c22.977 0 38.358 23.559 29.208 44.634z" fill="#283366"/><path d="m139.967 202.946c-5.463 1.061-10.64 2.157-15.526 3.266-27.151 6.164-48.54-23.165-34.477-47.194 33.36-56.999 95.223-95.284 166.036-95.284v-63.734c-141.385 0-256 114.615-256 256s114.615 256 256 256v-309.054zm84.166 200.278c0 22.977-23.559 38.358-44.635 29.207-44.669-19.396-80.53-55.259-99.926-99.93-9.151-21.076 6.231-44.634 29.207-44.634h39.204l76.149 76.15v39.207z" fill="#404a80"/><path d="m372.032 202.947c-11.547-2.243-24.379-4.326-38.421-6.049h-77.611l-10 59.102 10 127.598c70.357 0 127.598-57.24 127.598-127.598 0-18.92-4.145-36.888-11.566-53.053z" fill="#0f0f4d"/><path d="m178.388 196.898c-14.042 1.723-26.874 3.806-38.421 6.049-7.42 16.165-11.565 34.133-11.565 53.053 0 70.357 57.24 127.598 127.598 127.598v-186.7z" fill="#283366"/><path d="m333.61 196.896c-22.756-2.792-48.705-4.63-77.61-4.63l-10 63.734 10 97.598c53.815 0 97.598-43.782 97.598-97.598 0-22.2-7.456-42.688-19.988-59.104z" fill="#7d8fb3"/><path d="m178.39 196.896c-12.532 16.416-19.988 36.904-19.988 59.104 0 53.815 43.782 97.598 97.598 97.598v-161.332c-28.905 0-54.854 1.838-77.61 4.63z" fill="#a3aacc"/><path d="m287.867 241h-31.867l-10 15 10 15h31.867z" fill="#cfcfe6"/><path d="m224.133 241h31.867v30h-31.867z" fill="#ece6f2"/></g></svg>